<svg width="121" height="32" viewBox="0 0 121 32" fill="none" xmlns="http://www.w3.org/2000/svg">
<path fill-rule="evenodd" clip-rule="evenodd" d="M20.0024 0.567813V1.48504L20.0062 1.48693C20.0062 1.74603 19.8813 1.95973 19.4915 2.0089C14.3733 2.27681 10.2837 6.36433 10.0157 11.48C9.99661 11.7713 9.75331 11.997 9.46127 11.9944H8.51519C8.38068 12.0012 8.24932 11.9523 8.15196 11.8593C8.05461 11.7663 7.99984 11.6373 8.00052 11.5027C8.25526 5.29564 13.2042 0.307317 19.4121 0.000454614C19.5665 -0.00572498 19.7168 0.0513107 19.8282 0.158388C19.9396 0.265466 20.0025 0.413324 20.0024 0.567813ZM12.466 12.0039H11.5691L11.5634 12.002C11.4102 11.9986 11.2648 11.9334 11.1603 11.8212C11.0559 11.709 11.0013 11.5593 11.009 11.4062C11.3084 6.90092 14.8987 3.31319 19.4064 3.01502C19.5595 3.00732 19.7092 3.06186 19.8215 3.16623C19.9338 3.2706 19.999 3.41593 20.0024 3.56914V4.48258C20.0186 4.75676 19.8111 4.99291 19.5369 5.01212C16.0476 5.24228 13.2633 8.01066 13.0147 11.497C12.9929 11.7836 12.7535 12.0047 12.466 12.0039ZM20.0024 7.49904V6.58181C20.003 6.42628 19.9381 6.27767 19.8237 6.17228C19.7092 6.06689 19.5558 6.01442 19.4007 6.02769C16.5597 6.3142 14.3128 8.55925 14.0251 11.3987C13.993 11.7221 14.2522 12.002 14.6836 12.002H15.4764C15.7587 11.9966 15.9941 11.7847 16.0289 11.5046C16.258 9.68388 17.6957 8.25163 19.518 8.02857C19.7911 8.00155 19.9999 7.77327 20.0024 7.49904ZM29.9967 19.4665C30.0459 19.8561 30.2597 19.9809 30.519 19.9809L31.4423 19.9715C31.5952 19.9686 31.7405 19.9041 31.8453 19.7926C31.95 19.6812 32.0053 19.5323 31.9986 19.3795C31.6915 13.1741 26.6996 8.22738 20.4887 7.97372C20.354 7.97304 20.225 8.02778 20.1319 8.12509C20.0389 8.22239 19.99 8.35369 19.9967 8.48813V9.43373C19.9941 9.72563 20.22 9.9688 20.5114 9.98785C25.6361 10.2514 29.732 14.3445 29.9967 19.4665ZM20.184 11.1445C20.0713 11.2489 20.0058 11.3945 20.0024 11.5481L20.0043 12.4464C20.0035 12.7338 20.2247 12.9731 20.5114 12.9949C23.9974 13.2439 26.7657 16.0245 26.9977 19.51C27.0139 19.7863 27.2511 19.9971 27.5275 19.9809H28.4414C28.595 19.9776 28.7407 19.9121 28.8452 19.7995C28.9497 19.6868 29.004 19.5367 28.9958 19.3833C28.6956 14.8794 25.1066 11.2929 20.6003 10.994C20.4469 10.9857 20.2966 11.04 20.184 11.1445ZM24.5057 19.979H25.4253L25.4234 19.9809C25.579 19.9815 25.7277 19.9167 25.8331 19.8023C25.9386 19.6879 25.9911 19.5345 25.9778 19.3795C25.6901 16.5401 23.4432 14.295 20.6022 14.0085C20.4469 13.9947 20.2929 14.0469 20.178 14.1524C20.0631 14.2578 19.998 14.4068 19.9986 14.5627V15.4553C20.004 15.7375 20.2161 15.9728 20.4963 16.0075C22.3186 16.2357 23.7526 17.6728 23.9759 19.4949C24.003 19.7678 24.2313 19.9765 24.5057 19.979ZM1.99675 12.5145C1.94756 12.1249 1.73374 12.0001 1.47452 12.0001L0.556829 12.0095C0.4039 12.0125 0.258618 12.0769 0.153898 12.1884C0.0491781 12.2998 -0.00611763 12.4487 0.000538276 12.6015C0.307629 18.8069 5.29954 23.7536 11.5105 24.0073C11.6451 24.008 11.7742 23.9532 11.8672 23.8559C11.9603 23.7586 12.0092 23.6273 12.0024 23.4929V22.5473C12.005 22.2554 11.7792 22.0122 11.4878 21.9932C6.36086 21.7324 2.26173 17.6386 1.99675 12.5145ZM11.8152 20.829C11.9279 20.7245 11.9934 20.5789 11.9967 20.4254L11.9949 19.5346C11.9957 19.2472 11.7744 19.008 11.4878 18.9862C8.00178 18.736 5.23432 15.9546 5.00337 12.4691C4.98713 12.1929 4.74996 11.982 4.47357 11.9982H3.55966C3.40603 12.0016 3.26033 12.067 3.15585 12.1797C3.05136 12.2923 2.99703 12.4424 3.00527 12.5958C3.30802 17.0968 6.89532 20.6799 11.3988 20.9795C11.5523 20.9877 11.7025 20.9334 11.8152 20.829ZM7.48587 12.0001H6.56818C6.41429 12.0007 6.26759 12.0652 6.16317 12.1782C6.05875 12.2912 6.00601 12.4424 6.01756 12.5958C6.30522 15.4352 8.55219 17.6803 11.3931 17.9668C11.5469 17.9794 11.699 17.9275 11.8128 17.8234C11.9266 17.7193 11.9919 17.5725 11.993 17.4184V16.5238C11.9876 16.2417 11.7755 16.0063 11.4953 15.9716C9.67296 15.7434 8.23902 14.3063 8.01567 12.4842C7.98863 12.2113 7.76023 12.0026 7.48587 12.0001ZM12.5095 29.9986C12.1197 30.0477 11.9949 30.2615 11.9949 30.5205L12.0043 31.4435C12.0072 31.5963 12.0717 31.7415 12.1832 31.8462C12.2891 31.9456 12.4288 32.0004 12.5734 32C12.5824 32 12.5913 31.9999 12.6003 31.9995C18.8089 31.6935 23.759 26.705 24.0138 20.4972C24.0145 20.3626 23.9597 20.2336 23.8623 20.1406C23.7705 20.0529 23.6483 20.0044 23.5218 20.0049C23.513 20.0049 23.5042 20.0051 23.4953 20.0055H22.553C22.5507 20.0055 22.5484 20.0055 22.5461 20.0055C22.2554 20.0045 22.0138 20.2297 21.9948 20.5199C21.7301 25.642 17.6342 29.735 12.5095 29.9986ZM20.4323 20.0036C20.4321 20.0036 20.432 20.0036 20.4319 20.0036L19.5369 20.0055H19.5332C19.2456 20.0047 19.0062 20.2258 18.9844 20.5123C18.7342 23.9966 15.9514 26.7626 12.4641 26.9935C12.1877 27.0097 11.9768 27.2468 11.993 27.523V28.4365C11.9963 28.59 12.0618 28.7356 12.1745 28.8401C12.2802 28.938 12.4189 28.9919 12.5623 28.9914C12.5731 28.9914 12.5839 28.9912 12.5947 28.9906C17.1009 28.6916 20.69 25.1052 20.9901 20.6012C20.9983 20.4479 20.944 20.2977 20.8395 20.1851C20.735 20.0725 20.5893 20.007 20.4357 20.0036L20.4323 20.0036ZM12.483 23.977C12.21 24.004 12.0012 24.2323 11.9986 24.5065V25.4238C11.9981 25.5793 12.0629 25.7279 12.1774 25.8333C12.2918 25.9387 12.4453 25.9912 12.6003 25.9779C15.4413 25.6914 17.6883 23.4463 17.9759 20.6069C18.0081 20.2835 17.7489 20.0036 17.3175 20.0036H16.5246C16.2423 20.009 16.0069 20.2209 15.9721 20.501C15.743 22.3217 14.3054 23.754 12.483 23.977ZM44.98 24.276C48.821 24.276 51.006 22.206 51.006 19.17C51.006 16.525 49.488 15.076 46.245 14.501L44.75 14.225C43.209 13.949 42.519 13.443 42.519 12.224C42.519 11.028 43.416 10.338 45.141 10.338C46.843 10.338 47.947 11.005 48.729 11.994L50.799 10.039C49.511 8.498 47.717 7.67 45.302 7.67C41.714 7.67 39.483 9.533 39.483 12.408C39.483 15.03 41.047 16.571 44.29 17.077L45.808 17.307C47.487 17.606 47.993 18.273 47.993 19.354C47.993 20.711 47.027 21.608 45.164 21.608C43.508 21.608 42.151 20.918 41.047 19.63L39 21.608C40.357 23.195 42.243 24.276 44.98 24.276ZM58.9507 24V21.654H56.6737V14.317H59.1347V11.994H56.6737V8.705H54.0287V10.752C54.0287 11.58 53.7527 11.994 52.8787 11.994H51.9587V14.317H53.7297V20.941C53.7297 22.896 54.8107 24 56.8347 24H58.9507ZM63.9422 16.64V24H60.9982V11.994H63.9422V14.478H64.0572C64.3562 13.213 65.3222 11.994 67.2312 11.994H67.8752V14.777H66.9552C64.9772 14.777 63.9422 15.329 63.9422 16.64ZM74.0782 24.276C76.3092 24.276 78.0572 23.425 79.0462 22.068L77.4592 20.297C76.7232 21.24 75.8492 21.93 74.4002 21.93C72.4682 21.93 71.4792 20.757 71.4792 19.032V18.733H79.4602V17.767C79.4602 14.478 77.7352 11.718 73.9862 11.718C70.4672 11.718 68.4202 14.179 68.4202 17.974C68.4202 21.815 70.5362 24.276 74.0782 24.276ZM74.0322 13.926C75.5502 13.926 76.4012 15.053 76.4012 16.709V16.916H71.4792V16.732C71.4792 15.076 72.4912 13.926 74.0322 13.926ZM87.8234 21.93C87.4324 23.471 86.1214 24.276 84.3274 24.276C81.8894 24.276 80.5094 22.873 80.5094 20.734C80.5094 18.273 82.3724 17.054 85.6384 17.054H87.6854V16.18C87.6854 14.846 87.0184 14.064 85.4544 14.064C84.0744 14.064 83.2924 14.754 82.7174 15.582L80.9694 14.018C81.8434 12.638 83.2464 11.718 85.6614 11.718C88.9044 11.718 90.6294 13.259 90.6294 15.996V21.654H91.8254V24H90.1924C88.9274 24 88.1454 23.172 87.9614 21.93H87.8234ZM83.4994 20.688C83.4994 21.654 84.1664 22.137 85.3164 22.137C86.6274 22.137 87.6854 21.539 87.6854 20.412V18.825H85.7994C84.2584 18.825 83.4994 19.354 83.4994 20.297V20.688ZM96.4621 24V16.065C96.4621 14.777 97.5661 14.133 98.6931 14.133C100.004 14.133 100.625 14.984 100.625 16.709V24H103.569V16.065C103.569 14.777 104.65 14.133 105.8 14.133C107.111 14.133 107.732 14.984 107.732 16.709V24H110.676V16.41C110.676 13.42 109.342 11.718 106.996 11.718C105.087 11.718 103.753 12.799 103.316 14.133H103.27C102.695 12.523 101.43 11.718 99.7971 11.718C98.0031 11.718 97.0371 12.73 96.5771 13.995H96.4621V11.994H93.5181V24H96.4621ZM116.189 16.64V24H113.245V11.994H116.189V14.478H116.304C116.603 13.213 117.569 11.994 119.478 11.994H120.122V14.777H119.202C117.224 14.777 116.189 15.329 116.189 16.64Z" fill="#323232"/>
</svg>
